<?xml version="1.0" standalone="no"?>
<!DOCTYPE svg PUBLIC "-//W3C//DTD SVG 20010904//EN"
 "http://www.w3.org/TR/2001/REC-SVG-20010904/DTD/svg10.dtd">
<svg version="1.0" xmlns="http://www.w3.org/2000/svg"
 width="333.000000pt" height="333.000000pt" viewBox="0 0 333.000000 333.000000"
 preserveAspectRatio="xMidYMid meet">
<metadata>
Created by potrace 1.14, written by Peter Selinger 2001-2017
</metadata>
<g transform="translate(0.000000,333.000000) scale(0.100000,-0.100000)"
fill="#000000" stroke="none">
<path d="M1280 1660 l0 -1060 115 0 115 0 0 292 0 292 56 176 c51 157 58 172
65 145 13 -45 229 -894 229 -900 0 -3 54 -5 121 -5 110 0 120 2 115 18 -24 85
-95 341 -200 727 l-126 460 66 185 c190 533 254 715 254 722 0 5 -49 8 -110 8
l-109 0 -125 -382 c-68 -211 -148 -457 -178 -548 l-53 -165 -3 548 -2 547
-115 0 -115 0 0 -1060z"/>
</g>
</svg>
